<?xml version="1.0" encoding="iso-8859-1"?>
<!-- Generator: Adobe Illustrator 19.0.0, SVG Export Plug-In . SVG Version: 6.00 Build 0)  -->
<svg version="1.1" id="Capa_1" xmlns="http://www.w3.org/2000/svg" xmlns:xlink="http://www.w3.org/1999/xlink" x="0px" y="0px"
	 viewBox="0 0 480.236 480.236" style="enable-background:new 0 0 480.236 480.236;" xml:space="preserve">
<g>
	<g>
		<path d="M163.181,416.093l-6.4,14.656c26.227,11.5,54.563,17.406,83.2,17.344v-16
			C213.547,432.152,187.392,426.703,163.181,416.093z"/>
	</g>
</g>
<g>
	<g>
		<path d="M240.365,96.093c-9.708-0.013-19.391,0.957-28.904,2.895c-9.395-17.457-31.163-23.994-48.62-14.599
			c-16.422,8.837-23.341,28.777-15.924,45.887c-32.421,27.243-51.079,67.469-50.936,109.816c0.093,79.491,64.509,143.907,144,144
			v-16c-70.658-0.084-127.916-57.342-128-128c-0.061-37.264,16.278-72.667,44.672-96.8c6.463,5.646,14.746,8.77,23.328,8.8
			c19.873-0.022,35.978-16.127,36-36c0-0.56-0.144-1.088-0.168-1.6c69.239-13.498,136.31,31.689,149.808,100.928
			c1.585,8.128,2.375,16.391,2.36,24.672h16C384.087,160.67,319.787,96.199,240.365,96.093z M179.981,136.093
			c-11.046,0-20-8.954-20-20s8.954-20,20-20s20,8.954,20,20S191.027,136.093,179.981,136.093z"/>
	</g>
</g>
<g>
	<g>
		<path d="M292.331,141.043c-16.133-8.52-34.105-12.966-52.35-12.95v16c52.798-0.222,95.779,42.4,96.001,95.198
			c0.062,14.829-3.326,29.469-9.897,42.762c-14.253-5.697-30.425,1.24-36.122,15.492c-3.07,7.681-2.559,16.33,1.394,23.596
			c-15.335,9.812-33.17,15.003-51.376,14.952c-52.996-0.057-95.943-43.004-96-96h-16c0.066,61.828,50.172,111.934,112,112
			c22.437,0.041,44.357-6.736,62.856-19.432c4.027,2.221,8.545,3.401,13.144,3.432c15.437,0.028,27.975-12.464,28.003-27.901
			c0.01-5.693-1.718-11.254-4.954-15.939C367.889,237.602,346.982,169.903,292.331,141.043z M315.981,320.093
			c-6.627,0-12-5.373-12-12c0-6.627,5.373-12,12-12c6.627,0,12,5.373,12,12C327.981,314.72,322.608,320.093,315.981,320.093z"/>
	</g>
</g>
<g>
	<g>
		<path d="M194.781,194.861l-11.312-11.312c-15.066,14.955-23.523,35.316-23.488,56.544c-0.003,14.203,3.783,28.149,10.968,40.4
			l13.832-8.096C170.067,247.29,174.178,215.412,194.781,194.861z"/>
	</g>
</g>
<g>
	<g>
		<path d="M260.885,300.621c-20.436,7.042-43.046,3.283-60.104-9.992l-9.848,12.664c21.347,16.603,49.643,21.284,75.2,12.44
			L260.885,300.621z"/>
	</g>
</g>
<g>
	<g>
		<path d="M303.981,240.093c0.005,6.017-0.84,12.004-2.512,17.784l15.368,4.44c2.09-7.223,3.149-14.705,3.144-22.224H303.981z"/>
	</g>
</g>
<g>
	<g>
		<path d="M239.981,160.093c-9.999-0.015-19.911,1.858-29.216,5.52l5.856,14.896c31.679-12.33,67.475,2.199,81.6,33.12l14.552-6.648
			C299.753,178.472,271.322,160.158,239.981,160.093z"/>
	</g>
</g>
<g>
	<g>
		<path d="M239.981,192.093c-26.499,0.026-47.974,21.501-48,48c0,26.51,21.49,48,48,48c26.51,0,48-21.49,48-48
			C287.981,213.583,266.491,192.093,239.981,192.093z M239.981,272.093c-17.673,0-32-14.327-32-32s14.327-32,32-32
			c17.673,0,32,14.327,32,32S257.654,272.093,239.981,272.093z"/>
	</g>
</g>
<g>
	<g>
		<path d="M387.334,93.408c-13.228-13.256-28.188-24.662-44.473-33.908c0.708-2.407,1.085-4.899,1.12-7.408
			c0-15.464-12.536-28-28-28c-10.202,0.039-19.57,5.64-24.432,14.608C180.31,10.184,67.017,77.244,38.5,188.482
			c-11.508,44.89-7.689,92.338,10.848,134.81l14.632-6.4c-10.61-24.211-16.06-50.367-16-76.8
			C47.777,134.257,133.408,48.296,239.243,48.092c16.525-0.032,32.985,2.074,48.97,6.265c1.096,15.283,14.374,26.785,29.657,25.689
			c6.126-0.439,11.933-2.899,16.511-6.993c92.248,51.951,124.916,168.847,72.965,261.095c-8.594,15.26-19.239,29.271-31.637,41.641
			l11.312,11.312C468.208,306.086,468.349,174.596,387.334,93.408z M315.981,64.093c-6.627,0-12-5.373-12-12s5.373-12,12-12
			c6.627,0,12,5.373,12,12S322.608,64.093,315.981,64.093z"/>
	</g>
</g>
<g>
	<g>
		<path d="M415.981,240.093c-0.08-57.542-28.23-111.426-75.416-144.36l-9.16,13.16c72.466,50.39,90.362,149.985,39.972,222.451
			c-13.522,19.446-31.198,35.644-51.748,47.421c-10.132-11.482-27.064-13.989-40.088-5.936l-10.352-10.352l-11.312,11.312
			l10.48,10.48c-2.441,4.232-3.867,8.972-4.168,13.848c-86.671,13.951-168.241-45.001-182.192-131.672
			c-1.402-8.713-2.077-17.527-2.016-26.352h-16c-0.616,96.586,77.183,175.384,173.769,176c9.858,0.063,19.703-0.708,29.431-2.304
			c7.311,15.813,26.057,22.705,41.87,15.394c0.955-0.442,1.888-0.931,2.794-1.466l10.76,10.776l11.312-11.312l-10.624-10.624
			c4.42-7.045,5.788-15.583,3.792-23.656C382.079,361.696,416.038,303.323,415.981,240.093z M295.981,416.093
			c-8.752,0.084-15.916-6.943-16-15.695c-0.013-1.368,0.151-2.732,0.488-4.057l19.264,19.264
			C298.506,415.914,297.246,416.078,295.981,416.093z M311.277,404.525l-19.728-19.728c1.436-0.447,2.928-0.684,4.432-0.704
			c8.837,0,16,7.163,16,16C311.96,401.596,311.723,403.089,311.277,404.525z"/>
	</g>
</g>
<g>
	<g>
		<path d="M239.981,64.093v16c7.963,0,15.916,0.588,23.792,1.76l2.4-15.816C257.502,64.742,248.748,64.092,239.981,64.093z"/>
	</g>
</g>
<g>
	<g>
		<path d="M389.858,52.584c-5.071-4.044-10.303-7.88-15.685-11.5l-8.952,13.256c102.62,69.021,129.858,208.163,60.838,310.783
			s-208.163,129.858-310.783,60.838c-4.774-3.211-9.422-6.604-13.935-10.173c1.723-3.659,2.624-7.651,2.64-11.696
			c0-15.464-12.536-28-28-28c-4.045,0.016-8.037,0.917-11.696,2.64c-76.566-97.171-59.862-238.013,37.309-314.579
			c52.054-41.016,119.597-56.876,184.467-43.317l3.272-15.664C159.615-22.07,32.372,61.002,5.129,190.721
			C-9.564,260.68,7.695,333.547,52.205,389.485c-2.743,4.38-4.206,9.44-4.224,14.608c0,15.464,12.536,28,28,28
			c5.168-0.018,10.228-1.481,14.608-4.224c103.632,82.641,254.636,65.624,337.276-38.008S493.49,135.225,389.858,52.584z
			 M75.981,416.093c-6.627,0-12-5.373-12-12c0-6.627,5.373-12,12-12s12,5.373,12,12C87.981,410.72,82.608,416.093,75.981,416.093z"
			/>
	</g>
</g>
<g>
</g>
<g>
</g>
<g>
</g>
<g>
</g>
<g>
</g>
<g>
</g>
<g>
</g>
<g>
</g>
<g>
</g>
<g>
</g>
<g>
</g>
<g>
</g>
<g>
</g>
<g>
</g>
<g>
</g>
</svg>
