<?xml version="1.0" encoding="iso-8859-1"?>
<!-- Generator: Adobe Illustrator 19.0.0, SVG Export Plug-In . SVG Version: 6.00 Build 0)  -->
<svg version="1.1" id="Capa_1" xmlns="http://www.w3.org/2000/svg" xmlns:xlink="http://www.w3.org/1999/xlink" x="0px" y="0px"
	 viewBox="0 0 480 480" style="enable-background:new 0 0 480 480;" xml:space="preserve">
<g>
	<g>
		<rect x="203.512" y="168.72" width="73.464" height="16"/>
	</g>
</g>
<g>
	<g>
		<rect x="177.128" y="235.471" transform="matrix(0.866 -0.5 0.5 0.866 -111.3008 129.0324)" width="16" height="73.472"/>
	</g>
</g>
<g>
	<g>
		<rect x="258.602" y="264.155" transform="matrix(0.5 -0.866 0.866 0.5 -88.0306 391.8262)" width="73.472" height="16"/>
	</g>
</g>
<g>
	<g>
		<path d="M461.6,248.752v-16H355.504l-50.4-87.2l53.824-93.176l-13.856-8L292.176,136H190.992l-52.896-91.624l-13.864,8
			l52.456,90.824l-51.696,89.552H18.4v16h105.776l50.584,87.624L121.864,428l13.856,8l53.12-92H291.2l53.12,92l13.856-8
			l-52.936-91.624l50.584-87.624H461.6z M290.84,328H189.656l-50.584-87.624l50.528-87.624h101.24l50.592,87.624L290.84,328z"/>
	</g>
</g>
<g>
	<g>
		<rect y="176" width="16" height="32"/>
	</g>
</g>
<g>
	<g>
		<rect x="32" y="176" width="16" height="32"/>
	</g>
</g>
<g>
	<g>
		<rect x="136" width="16" height="32"/>
	</g>
</g>
<g>
	<g>
		<rect x="168" width="16" height="32"/>
	</g>
</g>
<g>
	<g>
		<rect x="352" width="16" height="32"/>
	</g>
</g>
<g>
	<g>
		<rect x="384" width="16" height="32"/>
	</g>
</g>
<g>
	<g>
		<rect x="432" y="184" width="16" height="32"/>
	</g>
</g>
<g>
	<g>
		<rect x="344" y="448" width="16" height="32"/>
	</g>
</g>
<g>
	<g>
		<rect x="136" y="448" width="16" height="32"/>
	</g>
</g>
<g>
	<g>
		<rect x="168" y="448" width="16" height="32"/>
	</g>
</g>
<g>
	<g>
		<rect x="376" y="448" width="16" height="32"/>
	</g>
</g>
<g>
	<g>
		<rect x="464" y="184" width="16" height="32"/>
	</g>
</g>
<g>
	<g>
		<path d="M44,328c-15.464,0-28,12.536-28,28c0,15.464,12.536,28,28,28s28-12.536,28-28C72,340.536,59.464,328,44,328z M44,368
			c-6.627,0-12-5.373-12-12c0-6.627,5.373-12,12-12s12,5.373,12,12C56,362.627,50.627,368,44,368z"/>
	</g>
</g>
<g>
	<g>
		<path d="M276,0c-15.464,0-28,12.536-28,28s12.536,28,28,28c15.464,0,28-12.536,28-28S291.464,0,276,0z M276,40
			c-6.627,0-12-5.373-12-12s5.373-12,12-12c6.627,0,12,5.373,12,12S282.627,40,276,40z"/>
	</g>
</g>
<g>
</g>
<g>
</g>
<g>
</g>
<g>
</g>
<g>
</g>
<g>
</g>
<g>
</g>
<g>
</g>
<g>
</g>
<g>
</g>
<g>
</g>
<g>
</g>
<g>
</g>
<g>
</g>
<g>
</g>
</svg>
